<?xml version="1.0" encoding="UTF-8" standalone="no"?>
<!DOCTYPE svg PUBLIC "-//W3C//DTD SVG 1.1//EN" "http://www.w3.org/Graphics/SVG/1.1/DTD/svg11.dtd">
<svg width="100%" height="100%" viewBox="0 0 32 32" version="1.1" xmlns="http://www.w3.org/2000/svg" xmlns:xlink="http://www.w3.org/1999/xlink" xml:space="preserve" xmlns:serif="http://www.serif.com/" style="fill-rule:evenodd;clip-rule:evenodd;stroke-linejoin:round;stroke-miterlimit:2;">
    <g transform="matrix(0.155357,0,0,0.155357,-258.092,-138.069)">
        <g>
            <g transform="matrix(1,0,0,1,1697.02,984.184)">
                <path d="M0,12.196L-24.579,12.196L-19.156,-8.026L-28.841,-8.026L-35.737,20.222L-1.722,20.222" style="fill-rule:nonzero;"/>
            </g>
            <g transform="matrix(1,0,0,1,1767.83,997.7)">
                <path d="M0,-34.706C-3.574,-27.68 -6.682,-20.337 -9.239,-12.881L-9.583,-11.871C-10.212,-10.019 -10.823,-8.221 -11.562,-6.553C-11.371,-8.364 -11.374,-9.639 -11.378,-10.887C-11.38,-11.809 -11.383,-12.681 -11.305,-13.798L-11.282,-14.106C-11.137,-15.983 -10.834,-19.889 -13.844,-21.493C-17.513,-23.448 -20.921,-19.983 -22.558,-18.316C-22.767,-18.103 -22.95,-17.915 -23.101,-17.776C-28.901,-12.452 -32.786,-9.656 -39.179,-8.164C-40.715,-7.806 -41.669,-6.271 -41.311,-4.735C-40.953,-3.2 -39.417,-2.243 -37.882,-2.603C-29.565,-4.543 -24.715,-8.543 -19.24,-13.57C-19.03,-13.762 -18.775,-14.02 -18.485,-14.315C-18.162,-14.643 -17.503,-15.314 -16.908,-15.8C-16.915,-15.316 -16.954,-14.817 -16.975,-14.547L-17.001,-14.195C-17.094,-12.871 -17.091,-11.854 -17.088,-10.871C-17.083,-9.006 -17.078,-7.396 -17.744,-3.808C-17.934,-2.783 -18.223,-0.2 -16.805,1.642C-16.067,2.6 -14.996,3.178 -13.79,3.27C-13.676,3.278 -13.564,3.282 -13.452,3.282C-11.929,3.282 -10.546,2.489 -9.338,0.92C-6.763,-2.421 -5.448,-6.292 -4.176,-10.035L-3.838,-11.029C-1.809,-16.945 0.579,-22.787 3.28,-28.446C3.015,-25.495 2.233,-22.492 1.42,-19.371C0.668,-16.482 -0.109,-13.495 -0.494,-10.423C-0.604,-9.546 -0.833,-6.521 0.842,-4.401C1.674,-3.346 2.808,-2.712 4.121,-2.568C5.778,-2.386 8.173,-2.942 10.169,-6.623C12.205,-10.378 13.92,-14.314 15.288,-18.364C15.043,-16.65 14.709,-14.939 14.359,-13.147C14.168,-12.17 13.977,-11.194 13.801,-10.214C13.435,-8.183 13.213,-6.609 13.081,-5.115C13.073,-5.033 13.055,-4.921 13.036,-4.789C12.818,-3.259 12.363,-0.077 14.921,1.134C15.789,1.545 16.77,1.574 17.68,1.215C19.549,0.478 20.674,-1.606 22.095,-5.193C22.177,-5.398 22.239,-5.559 22.281,-5.654C24.204,-9.958 27.808,-13.456 32.168,-15.249C36.528,-17.043 41.549,-17.094 45.944,-15.39C47.414,-14.82 49.068,-15.549 49.638,-17.019C50.209,-18.489 49.479,-20.143 48.009,-20.713C42.261,-22.943 35.696,-22.875 29.995,-20.53C26.142,-18.945 22.74,-16.341 20.164,-13.083C20.528,-14.965 20.881,-16.896 21.11,-18.861C21.135,-19.073 21.175,-19.329 21.219,-19.613C21.537,-21.701 22.507,-28.054 17.304,-28.858C14.463,-29.295 11.945,-27.175 10.89,-23.452C9.504,-18.561 7.573,-13.814 5.149,-9.344C5.146,-9.338 5.142,-9.332 5.139,-9.325C5.145,-9.45 5.155,-9.58 5.172,-9.713C5.51,-12.417 6.208,-15.096 6.946,-17.932C8.206,-22.773 9.51,-27.779 8.954,-33.062C8.66,-35.867 7.087,-37.747 4.849,-37.968C4.712,-37.981 4.57,-37.988 4.423,-37.988C3.079,-37.988 1.349,-37.359 0,-34.706" style="fill-rule:nonzero;"/>
            </g>
            <g transform="matrix(1,0,0,1,0,880.695)">
                <g>
                    <clipPath id="_clip1">
                        <path d="M1767.83,82.3C1764.26,89.326 1761.15,96.669 1758.59,104.125L1758.25,105.134C1757.62,106.987 1757.01,108.784 1756.27,110.452C1756.46,108.641 1756.46,107.366 1756.45,106.118C1756.45,105.196 1756.45,104.324 1756.53,103.207L1756.55,102.9C1756.69,101.022 1757,97.116 1753.99,95.513C1750.32,93.558 1746.91,97.023 1745.27,98.689C1745.06,98.902 1744.88,99.091 1744.73,99.229C1738.93,104.554 1735.04,107.35 1728.65,108.841C1727.12,109.199 1726.16,110.734 1726.52,112.27C1726.88,113.806 1728.41,114.762 1729.95,114.402C1738.27,112.462 1743.12,108.463 1748.59,103.436C1748.8,103.243 1749.06,102.986 1749.35,102.691C1749.67,102.363 1750.33,101.692 1750.92,101.206C1750.91,101.689 1750.88,102.189 1750.86,102.459L1750.83,102.81C1750.74,104.134 1750.74,105.151 1750.74,106.134C1750.75,107.999 1750.75,109.609 1750.09,113.198C1749.9,114.223 1749.61,116.806 1751.03,118.647C1751.76,119.605 1752.83,120.183 1754.04,120.275C1754.15,120.283 1754.27,120.288 1754.38,120.288C1755.9,120.288 1757.28,119.494 1758.49,117.925C1761.07,114.584 1762.38,110.713 1763.65,106.97L1763.99,105.977C1766.02,100.061 1768.41,94.218 1771.11,88.559C1770.84,91.51 1770.06,94.513 1769.25,97.635C1768.5,100.523 1767.72,103.51 1767.34,106.582C1767.23,107.459 1767,110.485 1768.67,112.605C1769.5,113.659 1770.64,114.293 1771.95,114.437C1773.61,114.619 1776,114.063 1778,110.382C1780.04,106.627 1781.75,102.691 1783.12,98.642C1782.87,100.355 1782.54,102.066 1782.19,103.858C1782,104.835 1781.81,105.812 1781.63,106.791C1781.27,108.823 1781.04,110.397 1780.91,111.891C1780.9,111.973 1780.89,112.085 1780.87,112.216C1780.65,113.746 1780.19,116.929 1782.75,118.139C1783.62,118.551 1784.6,118.58 1785.51,118.22C1787.38,117.483 1788.5,115.4 1789.92,111.812C1790.01,111.607 1790.07,111.446 1790.11,111.352C1792.03,107.048 1795.64,103.549 1800,101.756C1804.36,99.962 1809.38,99.912 1813.78,101.615C1815.25,102.185 1816.9,101.456 1817.47,99.986C1818.04,98.517 1817.31,96.862 1815.84,96.292C1810.09,94.063 1803.53,94.13 1797.83,96.476C1793.97,98.061 1790.57,100.664 1787.99,103.923C1788.36,102.041 1788.71,100.109 1788.94,98.145C1788.97,97.932 1789.01,97.677 1789.05,97.393C1789.37,95.305 1790.34,88.951 1785.13,88.148C1782.29,87.71 1779.78,89.831 1778.72,93.553C1777.33,98.445 1775.4,103.191 1772.98,107.661C1772.98,107.668 1772.97,107.674 1772.97,107.68C1772.98,107.555 1772.99,107.426 1773,107.293C1773.34,104.589 1774.04,101.91 1774.78,99.073C1776.04,94.232 1777.34,89.226 1776.78,83.943C1776.49,81.139 1774.92,79.258 1772.68,79.038C1772.54,79.024 1772.4,79.017 1772.25,79.017C1770.91,79.017 1769.18,79.646 1767.83,82.3Z"/>
                    </clipPath>
                    <g clip-path="url(#_clip1)">
                        <rect x="1726.16" y="79.017" width="91.878" height="41.271"/>
                    </g>
                </g>
            </g>
            <g transform="matrix(1,0,0,1,1721.45,1006.38)">
                <path d="M7.346,-43.706L-50.608,-43.706L-52.715,-34.617L-10.634,-34.617L-11.555,-29.4L-15.143,-9.09L-16.748,0L-0.374,0C12.554,0 22.537,-7.652 25.761,-19.085C20.623,-14.463 15.755,-10.811 7.847,-8.966C6.858,-8.734 5.868,-9.033 5.174,-9.677C3.748,-9.291 2.206,-9.09 0.56,-9.09L-4.483,-9.09L0,-34.617L5.105,-34.617C12.706,-34.617 16.568,-30.376 15.746,-23.113L15.742,-23.113C15.719,-22.907 15.693,-22.698 15.664,-22.488C17.676,-23.895 19.709,-25.635 22.054,-27.788C22.206,-27.927 22.388,-28.116 22.598,-28.329C23.422,-29.168 24.696,-30.463 26.226,-31.293C24.28,-38.955 17.57,-43.706 7.346,-43.706Z" style="fill-rule:nonzero;"/>
            </g>
            <g transform="matrix(1,0,0,1,0,889.048)">
                <path d="M1728.8,73.623L1670.84,73.623L1668.73,82.713L1710.82,82.713L1709.89,87.929L1706.31,108.239L1704.7,117.329L1721.08,117.329C1734,117.329 1743.99,109.677 1747.21,98.245C1742.07,102.867 1737.2,106.518 1729.3,108.363C1728.31,108.596 1727.32,108.297 1726.62,107.653C1725.2,108.039 1723.65,108.239 1722.01,108.239L1716.97,108.239L1721.45,82.713L1726.55,82.713C1734.15,82.713 1738.02,86.953 1737.19,94.216C1737.17,94.423 1737.14,94.631 1737.11,94.842C1739.12,93.434 1741.16,91.695 1743.5,89.541C1743.65,89.402 1743.84,89.214 1744.05,89.001C1744.87,88.161 1746.14,86.867 1747.67,86.037C1745.73,78.375 1739.02,73.623 1728.8,73.623Z" style="fill-rule:nonzero;"/>
            </g>
            <g transform="matrix(1,0,0,1,1679.05,990.356)">
                <path d="M0,-7.997L0.261,-7.997L0.269,-8.026L0,-7.997ZM0.261,-7.997L-1.82,0.029L18.994,0.029C19.384,-2.866 20.222,-5.692 20.525,-7.997L0.261,-7.997Z" style="fill-rule:nonzero;"/>
            </g>
            <g transform="matrix(1,0,0,1,1809.3,1007.99)">
                <path d="M0,-58.392L4.035,-47.885L8.611,-36.054L9.08,-36.053L9.045,-36.005L22.75,-36.005L29.523,-35.981L13.079,-23.591L19.605,-3.505L-1.825,-19.076L-6.871,-12.699L-6.761,-12.755L-29.495,18.504L2.519,-4.756L36.784,20.139L23.696,-20.141L57.96,-45.036L14.477,-45.165L3.998,-72.257L3.998,-72.258L1.572,-78.531L0,-58.392Z" style="fill-rule:nonzero;"/>
            </g>
            <g transform="matrix(-1,0,0,1,3647.07,877.594)">
                <g>
                    <clipPath id="_clip2">
                        <path d="M1837.77,72.008L1833.73,82.514L1829.15,94.346L1828.68,94.347L1828.72,94.394L1815.02,94.394L1808.24,94.419L1824.69,106.808L1818.16,126.894L1839.59,111.323L1844.64,117.701L1844.53,117.645L1867.26,148.903L1835.25,125.643L1800.98,150.538L1814.07,110.258L1779.8,85.364L1823.29,85.234L1833.77,58.142L1833.77,58.141L1836.19,51.868L1837.77,72.008Z"/>
                    </clipPath>
                    <g clip-path="url(#_clip2)">
                        <rect x="1779.81" y="51.868" width="87.455" height="98.67"/>
                    </g>
                </g>
            </g>
        </g>
    </g>
</svg>
