
<svg width="153px" height="173px" viewBox="0 0 153 173" version="1.1" xmlns="http://www.w3.org/2000/svg" xmlns:xlink="http://www.w3.org/1999/xlink">
    <g stroke="none" stroke-width="1" fill="none" fill-rule="evenodd">
        <path d="M87.2317857,144.580478 L150.8675,144.580478" stroke="#FFFFFF" stroke-width="1.61999986" stroke-linecap="round" stroke-linejoin="round"></path>
        <path d="M1.48535714,144.580478 L65.6603571,144.580478" stroke="#FFFFFF" stroke-width="1.61999986" stroke-linecap="round" stroke-linejoin="round"></path>
        <path d="M151.514643,139.938402 C150.49,138.319074 148.710357,137.347476 146.768929,137.293499 C146.768929,137.293499 146.768929,137.239521 146.768929,137.239521 C146.768929,133.838931 141.214286,131.032095 134.365357,131.032095 C133.556429,131.032095 132.693571,131.086072 131.884643,131.14005 C131.776786,124.55478 125.628929,119.210995 117.971071,119.210995 C114.681429,119.210995 111.499643,120.290547 108.857143,122.233742" stroke="#FFFFFF" stroke-width="1.61999986" stroke-linecap="round" stroke-linejoin="round"></path>
        <path d="M60.5371429,102.100088 C47.3785714,100.966558 31.2,109.549 24.9442857,120.614413 C15.5607143,118.293375 10.06,126.605929 10.5992857,131.463916 C4.55928571,131.571871 1.91678571,135.728148 1.755,139.884425" stroke="#FFFFFF" stroke-width="1.61999986" stroke-linecap="round" stroke-linejoin="round"></path>
        <path d="M87.6632143,89.8471679 C89.5507143,97.0261918 92.0314286,104.043283 95.0514286,110.790486" stroke="#FFFFFF" stroke-width="1.61999986" stroke-linecap="round" stroke-linejoin="round"></path>
        <path d="M77.4707143,15.466003 C79.4660714,46.1252931 82.3242857,68.1481634 86.5307143,85.4210028" stroke="#FFFFFF" stroke-width="1.61999986" stroke-linecap="round" stroke-linejoin="round"></path>
        <path d="M55.1982143,115.270629 C49.9671429,125.68831 43.5496429,134.756551 35.9996429,144.580478 L53.5264286,144.580478" stroke="#FFFFFF" stroke-width="1.61999986" stroke-linecap="round" stroke-linejoin="round"></path>
        <path d="M64.7435714,89.8471679 C62.8021429,96.9722142 60.3753571,103.989305 57.3553571,110.736508" stroke="#FFFFFF" stroke-width="1.61999986" stroke-linecap="round" stroke-linejoin="round"></path>
        <path d="M75.0439286,15.466003 C73.0485714,46.1792707 70.1364286,68.202141 65.8221429,85.5289581" stroke="#FFFFFF" stroke-width="1.61999986" stroke-linecap="round" stroke-linejoin="round"></path>
        <path d="M53.4725,144.580478 C53.4725,132.165625 63.9346429,122.071809 76.3382143,122.071809 C88.7417857,122.071809 99.0960714,132.165625 99.0960714,144.580478" stroke="#FFFFFF" stroke-width="1.61999986" stroke-linecap="round" stroke-linejoin="round"></path>
        <path d="M135.336071,139.938402 C133.88,137.455432 130.967857,136.267924 128.2175,137.023611 C128.109643,132.435513 123.579643,128.711057 118.025,128.711057 C117.108214,128.711057 116.191429,128.819012 115.328571,129.034922 C114.142143,124.77069 109.935714,121.58601 104.974286,121.58601 C103.733929,121.532033 102.439643,121.747943 101.253214,122.125787" stroke="#FFFFFF" stroke-width="1.61999986" stroke-linecap="round" stroke-linejoin="round"></path>
        <path d="M115.867857,143.446948 L114.681429,144.580478" stroke="#FFFFFF" stroke-width="1.61999986" stroke-linecap="round" stroke-linejoin="round"></path>
        <path d="M113.171429,139.99238 L108.5875,144.580478" stroke="#FFFFFF" stroke-width="1.61999986" stroke-linecap="round" stroke-linejoin="round"></path>
        <path d="M110.259286,136.8077 L102.709286,144.364567" stroke="#FFFFFF" stroke-width="1.61999986" stroke-linecap="round" stroke-linejoin="round"></path>
        <path d="M107.994286,132.975289 L98.9882143,141.989552" stroke="#FFFFFF" stroke-width="1.61999986" stroke-linecap="round" stroke-linejoin="round"></path>
        <path d="M105.459643,129.358788 L97.8017857,137.077588" stroke="#FFFFFF" stroke-width="1.61999986" stroke-linecap="round" stroke-linejoin="round"></path>
        <path d="M103.086786,125.68831 L95.8064286,132.975289" stroke="#FFFFFF" stroke-width="1.61999986" stroke-linecap="round" stroke-linejoin="round"></path>
        <path d="M100.767857,121.855899 L93.1639286,129.466743" stroke="#FFFFFF" stroke-width="1.61999986" stroke-linecap="round" stroke-linejoin="round"></path>
        <path d="M98.6107143,117.915532 L89.9821429,126.551952" stroke="#FFFFFF" stroke-width="1.61999986" stroke-linecap="round" stroke-linejoin="round"></path>
        <path d="M95.2671429,115.216651 L86.2071429,124.230914" stroke="#FFFFFF" stroke-width="1.61999986" stroke-linecap="round" stroke-linejoin="round"></path>
        <path d="M89.1192857,115.216651 L81.6232143,122.719541" stroke="#FFFFFF" stroke-width="1.61999986" stroke-linecap="round" stroke-linejoin="round"></path>
        <path d="M83.0253571,115.216651 L76.1225,122.125787" stroke="#FFFFFF" stroke-width="1.61999986" stroke-linecap="round" stroke-linejoin="round"></path>
        <path d="M92.7864286,105.392723 L87.3396429,110.898441" stroke="#FFFFFF" stroke-width="1.61999986" stroke-linecap="round" stroke-linejoin="round"></path>
        <path d="M54.6589286,137.509409 L47.5942857,144.580478" stroke="#FFFFFF" stroke-width="1.61999986" stroke-linecap="round" stroke-linejoin="round"></path>
        <path d="M76.8235714,115.324606 L68.7342857,123.42125" stroke="#FFFFFF" stroke-width="1.61999986" stroke-linecap="round" stroke-linejoin="round"></path>
        <path d="M91.1685714,100.966558 L83.3489286,108.793314" stroke="#FFFFFF" stroke-width="1.61999986" stroke-linecap="round" stroke-linejoin="round"></path>
        <path d="M70.7835714,115.270629 L41.5003571,144.580478" stroke="#FFFFFF" stroke-width="1.61999986" stroke-linecap="round" stroke-linejoin="round"></path>
        <path d="M89.6046429,96.432438 L82.7017857,103.341574" stroke="#FFFFFF" stroke-width="1.61999986" stroke-linecap="round" stroke-linejoin="round"></path>
        <path d="M64.5278571,115.378584 L37.995,141.989552" stroke="#FFFFFF" stroke-width="1.61999986" stroke-linecap="round" stroke-linejoin="round"></path>
        <path d="M88.2025,91.7363848 L82.0007143,97.8898338" stroke="#FFFFFF" stroke-width="1.61999986" stroke-linecap="round" stroke-linejoin="round"></path>
        <path d="M58.5417857,115.270629 L51.0996429,122.773518" stroke="#FFFFFF" stroke-width="1.61999986" stroke-linecap="round" stroke-linejoin="round"></path>
        <path d="M69.4892857,104.367149 L63.1257143,110.682531" stroke="#FFFFFF" stroke-width="1.61999986" stroke-linecap="round" stroke-linejoin="round"></path>
        <path d="M83.9960714,89.8471679 L81.3535714,92.4380939" stroke="#FFFFFF" stroke-width="1.61999986" stroke-linecap="round" stroke-linejoin="round"></path>
        <path d="M70.2982143,97.4040352 L57.5710714,110.142754" stroke="#FFFFFF" stroke-width="1.61999986" stroke-linecap="round" stroke-linejoin="round"></path>
        <path d="M85.7217857,81.9664349 L82.2164286,85.5289581" stroke="#FFFFFF" stroke-width="1.61999986" stroke-linecap="round" stroke-linejoin="round"></path>
        <path d="M71.7542857,89.8471679 L61.7235714,99.8870059" stroke="#FFFFFF" stroke-width="1.61999986" stroke-linecap="round" stroke-linejoin="round"></path>
        <path d="M84.6432143,77.0004936 L76.2303571,85.4210028" stroke="#FFFFFF" stroke-width="1.61999986" stroke-linecap="round" stroke-linejoin="round"></path>
        <path d="M65.6603571,89.8471679 L64.3660714,91.1426309" stroke="#FFFFFF" stroke-width="1.61999986" stroke-linecap="round" stroke-linejoin="round"></path>
        <path d="M83.6185714,71.8726194 L69.9746429,85.5289581" stroke="#FFFFFF" stroke-width="1.61999986" stroke-linecap="round" stroke-linejoin="round"></path>
        <path d="M82.8096429,66.5828123 L66.4692857,82.9380322" stroke="#FFFFFF" stroke-width="1.61999986" stroke-linecap="round" stroke-linejoin="round"></path>
        <path d="M81.8928571,61.4009605 L68.1410714,75.1652544" stroke="#FFFFFF" stroke-width="1.61999986" stroke-linecap="round" stroke-linejoin="round"></path>
        <path d="M81.1917857,55.9492205 L69.4892857,67.6623648" stroke="#FFFFFF" stroke-width="1.61999986" stroke-linecap="round" stroke-linejoin="round"></path>
        <path d="M80.5446429,50.4974806 L70.6217857,60.4293633" stroke="#FFFFFF" stroke-width="1.61999986" stroke-linecap="round" stroke-linejoin="round"></path>
        <path d="M79.9514286,44.991763 L71.5925,53.4122722" stroke="#FFFFFF" stroke-width="1.61999986" stroke-linecap="round" stroke-linejoin="round"></path>
        <path d="M79.4121429,39.4860454 L72.4014286,46.4491588" stroke="#FFFFFF" stroke-width="1.61999986" stroke-linecap="round" stroke-linejoin="round"></path>
        <path d="M78.8728571,33.8723726 L73.1025,39.6479783" stroke="#FFFFFF" stroke-width="1.61999986" stroke-linecap="round" stroke-linejoin="round"></path>
        <path d="M78.3875,28.2586998 L73.9114286,32.7388425" stroke="#FFFFFF" stroke-width="1.61999986" stroke-linecap="round" stroke-linejoin="round"></path>
        <path d="M77.9560714,22.5910493 L74.3967857,26.1535725" stroke="#FFFFFF" stroke-width="1.61999986" stroke-linecap="round" stroke-linejoin="round"></path>
        <path d="M77.5785714,16.8694212 L74.8821429,19.5143248" stroke="#FFFFFF" stroke-width="1.61999986" stroke-linecap="round" stroke-linejoin="round"></path>
        <polygon stroke="#FFFFFF" stroke-width="1.61999986" stroke-linecap="round" stroke-linejoin="round" points="83.6185714 110.898441 68.6803571 110.898441 71.215 89.8471679 81.03 89.8471679"></polygon>
        <path d="M100.174643,115.216651 L52.1782143,115.216651" stroke="#FFFFFF" stroke-width="1.61999986" stroke-linecap="round" stroke-linejoin="round"></path>
        <polyline stroke="#FFFFFF" stroke-width="1.61999986" stroke-linecap="round" stroke-linejoin="round" points="54.8746429 110.898441 95.0514286 110.898441 97.4782143 110.898441"></polyline>
        <path d="M89.9282143,89.8471679 L62.4246429,89.8471679" stroke="#FFFFFF" stroke-width="1.61999986" stroke-linecap="round" stroke-linejoin="round"></path>
        <path d="M63.5032143,85.5289581 L88.8496429,85.5289581" stroke="#FFFFFF" stroke-width="1.61999986" stroke-linecap="round" stroke-linejoin="round"></path>
        <path d="M79.1425,15.3580478 L73.7496429,15.3580478 L73.7496429,10.0682407 C73.6957143,8.82675538 74.6664286,7.80118054 75.9067857,7.74720291 C75.9067857,7.74720291 75.9607143,7.74720291 75.9607143,7.74720291 L75.8528571,7.74720291 L76.5,7.74720291 C77.7942857,7.74720291 79.1425,8.77277775 79.1425,10.0682407 L79.1425,15.3580478 Z" stroke="#FFFFFF" stroke-width="1.61999986" stroke-linecap="round" stroke-linejoin="round"></path>
        <path d="M76.4460714,1.32386574 L76.4460714,7.2614043" stroke="#FFFFFF" stroke-width="1.61999986" stroke-linecap="round" stroke-linejoin="round"></path>
        <ellipse fill="#FFFFFF" fill-rule="nonzero" transform="translate(19.075665, 100.444179) rotate(-74.002662) translate(-19.075665, -100.444179) " cx="19.0756653" cy="100.444179" rx="1.07950662" ry="1.07867458"></ellipse>
        <polygon stroke="#FFFFFF" stroke-width="1.61990468" stroke-linecap="round" stroke-linejoin="round" transform="translate(51.709095, 45.675055) rotate(-53.220635) translate(-51.709095, -45.675055) " points="45.1561934 39.12384 58.2677125 39.1181242 58.2619967 52.2262699 45.1504776 52.2319856"></polygon>
        <polygon stroke="#FFFFFF" stroke-width="1.61996377" stroke-linecap="round" stroke-linejoin="round" transform="translate(31.194801, 79.481456) rotate(-7.377309) translate(-31.194801, -79.481456) " points="26.2879054 74.570244 36.102834 74.5691072 36.1016972 84.3926686 26.2867686 84.3938054"></polygon>
        <path d="M40.5296429,95.0829974 C41.9857143,93.6256016 43.3878571,92.0602505 44.6821429,90.3869442 C54.1735714,78.1880013 54.9285714,64.909506 53.095,54.8696681" stroke="#FFFFFF" stroke-width="1.61999986" stroke-linecap="round" stroke-linejoin="round"></path>
        <path d="M17.7178571,106.256365 C17.3403571,107.983649 17.0707143,109.764911 16.855,111.546173" stroke="#FFFFFF" stroke-width="1.61999986" stroke-linecap="round" stroke-linejoin="round"></path>
        <path d="M26.9935714,84.827249 C23.7039286,89.415347 22.5714286,91.1426309 20.8996429,95.4608408" stroke="#FFFFFF" stroke-width="1.61999986" stroke-linecap="round" stroke-linejoin="round"></path>
        <path d="M97.2625,115.270629 C102.493571,125.68831 108.803214,134.756551 116.8925,144.580478 L99.2578571,144.580478" stroke="#FFFFFF" stroke-width="1.61999986" stroke-linecap="round" stroke-linejoin="round"></path>
        <path d="M45.282,162.77 C45.4980011,162.986001 45.7709984,163.261998 46.101,163.598 C46.4310016,163.934002 46.793998,164.299998 47.19,164.696 L48.423,165.929 C48.8490021,166.355002 49.265998,166.768998 49.674,167.171 C50.082002,167.573002 50.4659982,167.950998 50.826,168.305 C51.1860018,168.659002 51.4919987,168.961999 51.744,169.214 L51.744,172.454 L49.026,169.736 C48.4859973,170.108002 47.9010032,170.395999 47.271,170.6 C46.6409969,170.804001 45.9780035,170.906 45.282,170.906 C44.3819955,170.906 43.5510038,170.738002 42.789,170.402 C42.0269962,170.065998 41.3640028,169.604003 40.8,169.016 C40.2359972,168.427997 39.7950016,167.744004 39.477,166.964 C39.1589984,166.183996 39,165.344005 39,164.444 C39,163.555996 39.1589984,162.719004 39.477,161.933 C39.7950016,161.146996 40.2359972,160.463003 40.8,159.881 C41.3640028,159.298997 42.0269962,158.840002 42.789,158.504 C43.5510038,158.167998 44.3819955,158 45.282,158 C46.1820045,158 47.0249961,158.167998 47.811,158.504 C48.5970039,158.840002 49.2809971,159.298997 49.863,159.881 C50.4450029,160.463003 50.9069983,161.146996 51.249,161.933 C51.5910017,162.719004 51.762,163.555996 51.762,164.444 C51.762,164.768002 51.7380002,165.085998 51.69,165.398 C51.6419998,165.710002 51.5700005,166.009999 51.474,166.298 L48.882,165.938 C48.9780005,165.697999 49.0499998,165.458001 49.098,165.218 C49.1460002,164.977999 49.17,164.720001 49.17,164.444 C49.17,163.879997 49.068001,163.346003 48.864,162.842 C48.659999,162.337997 48.3810018,161.900002 48.027,161.528 C47.6729982,161.155998 47.2620023,160.862001 46.794,160.646 C46.3259977,160.429999 45.8220027,160.322 45.282,160.322 C44.7419973,160.322 44.2470023,160.429999 43.797,160.646 C43.3469978,160.862001 42.9600016,161.155998 42.636,161.528 C42.3119984,161.900002 42.0570009,162.337997 41.871,162.842 C41.6849991,163.346003 41.592,163.879997 41.592,164.444 C41.592,165.020003 41.6849991,165.559997 41.871,166.064 C42.0570009,166.568003 42.3119984,167.008998 42.636,167.387 C42.9600016,167.765002 43.3469978,168.061999 43.797,168.278 C44.2470023,168.494001 44.7419973,168.602 45.282,168.602 C45.6420018,168.602 45.9929983,168.548001 46.335,168.44 C46.6770017,168.331999 46.9979985,168.182001 47.298,167.99 L45.282,165.974 L45.282,162.77 Z M55.488,165.542 C55.488,165.974002 55.5629993,166.378998 55.713,166.757 C55.8630008,167.135002 56.0699987,167.464999 56.334,167.747 C56.5980013,168.029001 56.9069982,168.253999 57.261,168.422 C57.6150018,168.590001 57.989998,168.674 58.386,168.674 L58.386,170.888 C57.6299962,170.888 56.9220033,170.747001 56.262,170.465 C55.6019967,170.182999 55.0230025,169.796002 54.525,169.304 C54.0269975,168.811998 53.6370014,168.236003 53.355,167.576 C53.0729986,166.915997 52.932,166.208004 52.932,165.452 L52.932,158.144 L55.488,158.144 L55.488,165.542 Z M63.804,158.144 L63.804,165.452 C63.804,166.088003 63.699001,166.690997 63.489,167.261 C63.278999,167.831003 62.9910018,168.346998 62.625,168.809 C62.2589982,169.271002 61.8240025,169.666998 61.32,169.997 C60.8159975,170.327002 60.2700029,170.569999 59.682,170.726 L58.566,168.656 C58.9380019,168.632 59.2859984,168.533001 59.61,168.359 C59.9340016,168.184999 60.2189988,167.957001 60.465,167.675 C60.7110012,167.392999 60.9029993,167.069002 61.041,166.703 C61.1790007,166.336998 61.248,165.950002 61.248,165.542 C61.248,165.53 61.245,165.521 61.239,165.515 C61.233,165.509 61.23,165.5 61.23,165.488 C61.23,165.452 61.233,165.446 61.239,165.47 C61.245,165.494 61.248,165.473 61.248,165.407 L61.248,158.144 L63.804,158.144 Z M75.144,170.744 L74.208,168.512 L68.448,168.512 L67.494,170.744 L64.794,170.744 L69.96,158.144 L72.678,158.144 L69.348,166.262 L73.29,166.262 L71.508,161.942 L73.542,160.196 L77.844,170.744 L75.144,170.744 Z M84.324,158.144 C85.1880043,158.144 86.0039962,158.308998 86.772,158.639 C87.5400038,158.969002 88.2089972,159.418997 88.779,159.989 C89.3490029,160.559003 89.7989984,161.227996 90.129,161.996 C90.4590017,162.764004 90.624,163.579996 90.624,164.444 C90.624,165.308004 90.4590017,166.123996 90.129,166.892 C89.7989984,167.660004 89.3490029,168.328997 88.779,168.899 C88.2089972,169.469003 87.5400038,169.918998 86.772,170.249 C86.0039962,170.579002 85.1880043,170.744 84.324,170.744 L83.28,170.744 L82.092,168.548 L84.324,168.548 C84.8400026,168.548 85.3289977,168.446001 85.791,168.242 C86.2530023,168.037999 86.6549983,167.753002 86.997,167.387 C87.3390017,167.020998 87.608999,166.586003 87.807,166.082 C88.005001,165.577997 88.104,165.032003 88.104,164.444 C88.104,163.867997 88.005001,163.328003 87.807,162.824 C87.608999,162.319997 87.3390017,161.885002 86.997,161.519 C86.6549983,161.152998 86.2530023,160.865001 85.791,160.655 C85.3289977,160.444999 84.8400026,160.34 84.324,160.34 L81.444,160.34 L81.444,170.744 L78.924,170.744 L78.924,158.144 L84.324,158.144 Z M102.144,170.744 L98.94,170.744 L97.014,168.368 L99.12,167 L102.144,170.744 Z M99.282,166.604 C98.9939986,166.736001 98.7270012,166.832 98.481,166.892 C98.2349988,166.952 97.9350018,166.991 97.581,167.009 C97.2269982,167.027 96.7890026,167.033 96.267,167.027 C95.7449974,167.021 95.0700041,167.018 94.242,167.018 L94.242,170.744 L91.704,170.744 L91.704,158.144 L97.41,158.144 C98.0220031,158.144 98.5949973,158.260999 99.129,158.495 C99.6630027,158.729001 100.130998,159.046998 100.533,159.449 C100.935002,159.851002 101.252999,160.324997 101.487,160.871 C101.721001,161.417003 101.838,161.995997 101.838,162.608 C101.838,163.508005 101.601002,164.311996 101.127,165.02 C100.652998,165.728004 100.038004,166.255998 99.282,166.604 Z M94.242,164.498 L97.41,164.498 C97.9500027,164.498 98.4059981,164.309002 98.778,163.931 C99.1500019,163.552998 99.336,163.046003 99.336,162.41 C99.336,162.145999 99.2850005,161.891001 99.183,161.645 C99.0809995,161.398999 98.9430009,161.180001 98.769,160.988 C98.5949991,160.795999 98.3910012,160.643001 98.157,160.529 C97.9229988,160.414999 97.6740013,160.358 97.41,160.358 L94.242,160.358 L94.242,164.498 Z M113.124,170.744 L112.188,168.512 L106.428,168.512 L105.474,170.744 L102.774,170.744 L107.94,158.144 L110.658,158.144 L107.328,166.262 L111.27,166.262 L109.488,161.942 L111.522,160.196 L115.824,170.744 L113.124,170.744 Z" id="QUADRA" fill="#FFFFFF"></path>
    </g>
</svg>
