<?xml version="1.0" encoding="UTF-8"?>
<svg width="120px" height="27px" viewBox="0 0 120 27" version="1.1" xmlns="http://www.w3.org/2000/svg" xmlns:xlink="http://www.w3.org/1999/xlink">
    <title>nova</title>
    <g id="Page-1" stroke="none" stroke-width="1" fill="none" fill-rule="evenodd">
        <g id="Classic-Web" transform="translate(-514.000000, -471.000000)" fill="#FFFFFF" fill-rule="nonzero">
            <path d="M520.321215,497.796117 L520.321215,477.444949 L531.383341,477.444949 C532.145129,477.444949 532.854239,477.573022 533.510673,477.829168 C534.167107,478.085313 534.738448,478.453006 535.224695,478.932245 C535.710942,479.411485 536.095888,479.985747 536.379532,480.65503 C536.663176,481.324313 536.804999,482.080355 536.804999,482.923156 L536.804999,482.923156 L536.804999,497.796117 L543.126214,497.796117 L543.126214,482.923156 C543.126214,481.468911 542.947923,480.163396 542.591342,479.00661 C542.23476,477.849824 541.752565,476.829374 541.144756,475.945259 C540.536947,475.061144 539.839992,474.309234 539.053892,473.689527 C538.267793,473.06982 537.441172,472.557529 536.574031,472.152654 C535.70689,471.747779 534.831645,471.454452 533.948296,471.272671 C533.064946,471.09089 532.22617,471 531.431966,471 L531.431966,471 L517.18492,471 C516.747297,471 516.333987,471.082628 515.944989,471.247883 C515.555991,471.413138 515.215618,471.640364 514.92387,471.92956 C514.632121,472.218756 514.405206,472.557529 514.243124,472.945879 C514.081041,473.334228 514,473.751498 514,474.197686 L514,474.197686 L514,497.796117 L520.321215,497.796117 Z M565.708511,497.796117 C566.308216,497.796117 566.94439,497.725883 567.617032,497.585416 C568.289674,497.444949 568.954212,497.225986 569.610646,496.928527 C570.267079,496.631068 570.895149,496.24685 571.494854,495.775873 C572.094559,495.304896 572.621327,494.734766 573.075158,494.065482 C573.528988,493.396199 573.893674,492.6195 574.169214,491.735385 C574.444754,490.85127 574.582524,489.855608 574.582524,488.748399 L574.582524,488.748399 L574.582524,480.022929 C574.582524,479.114026 574.424494,478.130758 574.108433,477.073125 C573.792372,476.015493 573.285865,475.036356 572.58891,474.135716 C571.891956,473.235075 570.97619,472.487296 569.841613,471.892378 C568.707036,471.297459 567.329335,471 565.708511,471 L565.708511,471 L554.306012,471 C553.430766,471 552.47448,471.156992 551.437153,471.470977 C550.399825,471.784962 549.439487,472.301384 548.556137,473.020244 C547.672788,473.739103 546.935313,474.672795 546.343712,475.821318 C545.752111,476.969841 545.456311,478.370378 545.456311,480.022929 L545.456311,480.022929 L545.456311,488.748399 C545.456311,490.417476 545.752111,491.826276 546.343712,492.974799 C546.935313,494.123322 547.672788,495.057013 548.556137,495.775873 C549.439487,496.494732 550.399825,497.011155 551.437153,497.325139 C552.47448,497.639124 553.430766,497.796117 554.306012,497.796117 L554.306012,497.796117 L565.708511,497.796117 Z M564.885815,490.805825 L552.848698,490.805825 C551.955151,490.805825 551.276398,490.581538 550.812441,490.132963 C550.348484,489.684388 550.116505,489.036447 550.116505,488.189139 L550.116505,488.189139 L550.116505,479.417008 C550.116505,478.5697 550.348484,477.925912 550.812441,477.485645 C551.276398,477.045377 551.955151,476.825243 552.848698,476.825243 L552.848698,476.825243 L564.885815,476.825243 C565.762179,476.825243 566.43234,477.041223 566.896297,477.473184 C567.360254,477.905145 567.592233,478.5697 567.592233,479.46685 L567.592233,479.46685 L567.592233,488.189139 C567.592233,489.036447 567.368846,489.684388 566.922072,490.132963 C566.475299,490.581538 565.796546,490.805825 564.885815,490.805825 L564.885815,490.805825 Z M579.060284,497.796117 C581.707082,497.796117 584.164221,497.445598 586.4317,496.744561 C588.69918,496.043523 590.798073,495.078566 592.728381,493.849689 C594.658689,492.620812 596.420411,491.161005 598.013547,489.470269 C599.606683,487.779532 601.048092,485.94034 602.337774,483.952693 C603.627455,481.965047 604.769624,479.874306 605.764281,477.680472 C606.758937,475.486638 607.627154,473.259814 608.368932,471 L608.368932,471 L601.389478,471 C601.086024,472.138155 600.626628,473.424764 600.011289,474.859828 C599.395951,476.294893 598.649959,477.758823 597.773312,479.25162 C596.896666,480.744417 595.897795,482.2001 594.776699,483.61867 C593.655603,485.037239 592.437571,486.30323 591.122601,487.416642 C589.807632,488.530054 588.412584,489.424907 586.937458,490.101202 C585.462332,490.777497 583.923986,491.115644 582.32242,491.115644 L582.32242,491.115644 L582.32242,471 L575.747573,471 L575.747573,494.604335 C575.747573,495.0497 575.831866,495.466199 576.000452,495.853831 C576.169037,496.241463 576.405058,496.579611 576.708512,496.868273 C577.011967,497.156936 577.365997,497.383742 577.770603,497.548692 C578.175209,497.713642 578.605103,497.796117 579.060284,497.796117 Z M625.200688,497.796117 C626.806522,497.796117 628.170661,497.498657 629.293106,496.903739 C630.41555,496.30882 631.324976,495.569304 632.021384,494.685189 C632.717791,493.801074 633.221662,492.842595 633.532997,491.80975 C633.844332,490.776906 634,489.814295 634,488.921917 L634,488.921917 L634,479.8742 C634,478.254699 633.705051,476.878951 633.115153,475.746953 C632.525255,474.614956 631.791979,473.69779 630.915325,472.995455 C630.038671,472.293121 629.08828,471.784962 628.064151,471.470977 C627.040023,471.156992 626.085535,471 625.200688,471 L625.200688,471 L611.166032,471 L611.166032,477.122702 L625.200688,477.122702 C625.987219,477.122702 626.638565,477.370585 627.154725,477.86635 C627.670886,478.362115 627.928966,479.031398 627.928966,479.8742 L627.928966,479.8742 L627.928966,488.87234 C627.928966,489.665565 627.691369,490.326585 627.216173,490.855402 C626.740977,491.384218 626.069149,491.648626 625.200688,491.648626 L625.200688,491.648626 L613.722256,491.648626 C612.968498,491.648626 612.317152,491.413138 611.768219,490.942161 C611.219286,490.471184 610.94482,489.814295 610.94482,488.971493 C610.94482,488.178269 611.182418,487.513117 611.657613,486.976038 C612.132809,486.438959 612.804637,486.170419 613.673098,486.170419 L613.673098,486.170419 L625.200688,486.170419 L625.200688,480.022929 L613.673098,480.022929 C612.067265,480.022929 610.703126,480.320388 609.580681,480.915307 C608.458236,481.510225 607.54881,482.249742 606.852403,483.133857 C606.155995,484.017971 605.652124,484.980583 605.340789,486.02169 C605.029454,487.062797 604.873786,488.029539 604.873786,488.921917 C604.873786,490.541417 605.168735,491.917166 605.758633,493.049163 C606.348531,494.181161 607.081807,495.098327 607.958461,495.800661 C608.835115,496.502995 609.785507,497.011155 610.809635,497.325139 C611.833763,497.639124 612.788251,497.796117 613.673098,497.796117 L613.673098,497.796117 L625.200688,497.796117 Z" id="nova"></path>
        </g>
    </g>
</svg>