<svg id="Layer_1" data-name="Layer 1" xmlns="http://www.w3.org/2000/svg" xmlns:xlink="http://www.w3.org/1999/xlink" viewBox="0 0 86 86"><defs><style>.cls-1,.cls-2{fill:#ede8b6;}.cls-1,.cls-4{stroke:#000;stroke-miterlimit:10;stroke-width:3px;}.cls-3{clip-path:url(#clip-path);}.cls-4{fill:none;}</style><clipPath id="clip-path"><circle class="cls-1" cx="43" cy="43" r="35.24"/></clipPath></defs><circle class="cls-2" cx="43" cy="43" r="35.24"/><circle class="cls-4" cx="43" cy="43" r="35.24"/><path d="M65.06,33.85a16.24,16.24,0,0,0-1-5.38A11.3,11.3,0,0,0,57.54,22a16.36,16.36,0,0,0-5.39-1c-2.37-.1-3.12-.13-9.15-.13s-6.78,0-9.15.13a16.36,16.36,0,0,0-5.39,1A11.3,11.3,0,0,0,22,28.47a16.24,16.24,0,0,0-1,5.38c-.1,2.37-.13,3.12-.13,9.15s0,6.78.13,9.15a16.36,16.36,0,0,0,1,5.39A11.25,11.25,0,0,0,28.46,64a16.36,16.36,0,0,0,5.39,1c2.37.1,3.12.13,9.15.13s6.78,0,9.15-.13a16.36,16.36,0,0,0,5.39-1A11.25,11.25,0,0,0,64,57.54a16.36,16.36,0,0,0,1-5.39c.1-2.37.13-3.12.13-9.15S65.16,36.22,65.06,33.85ZM61.06,52a12.45,12.45,0,0,1-.76,4.12,7.36,7.36,0,0,1-4.21,4.21,12.51,12.51,0,0,1-4.12.76c-2.34.11-3,.13-9,.13s-6.63,0-9-.13a12.51,12.51,0,0,1-4.12-.76,7.36,7.36,0,0,1-4.21-4.21A12.45,12.45,0,0,1,24.94,52c-.11-2.34-.13-3-.13-9s0-6.63.13-9a12.51,12.51,0,0,1,.76-4.12,7.36,7.36,0,0,1,4.21-4.21A12.51,12.51,0,0,1,34,24.94c2.34-.11,3-.13,9-.13s6.63,0,9,.13a12.51,12.51,0,0,1,4.12.76,7.36,7.36,0,0,1,4.21,4.21A12.51,12.51,0,0,1,61.06,34c.11,2.34.13,3,.13,9S61.17,49.63,61.06,52Z"/><path d="M43,31.6A11.4,11.4,0,1,0,54.39,43,11.4,11.4,0,0,0,43,31.6Zm0,18.8A7.4,7.4,0,1,1,50.4,43,7.41,7.41,0,0,1,43,50.4Z"/><path d="M54.84,28.49a2.67,2.67,0,1,0,2.67,2.66A2.66,2.66,0,0,0,54.84,28.49Z"/></svg>