<svg id="Layer_1" data-name="Layer 1" xmlns="http://www.w3.org/2000/svg" viewBox="0 0 86 86"><defs><style>.cls-1{fill:#ede8b6;stroke:#000;stroke-miterlimit:10;stroke-width:3px;}</style></defs><circle class="cls-1" cx="43" cy="43" r="35.24"/><path d="M66,31.69a5.91,5.91,0,0,0-4.16-4.15c-3.66-1-18.36-1-18.36-1s-14.69,0-18.36,1A5.88,5.88,0,0,0,21,31.69C20,35.35,20,43,20,43s0,7.65,1,11.31a5.88,5.88,0,0,0,4.15,4.15c3.67,1,18.36,1,18.36,1s14.7,0,18.36-1A5.91,5.91,0,0,0,66,54.31C67,50.65,67,43,67,43S67,35.35,66,31.69ZM38.82,50.05V36L51,43Z"/></svg>