<svg id="Layer_1" data-name="Layer 1" xmlns="http://www.w3.org/2000/svg" viewBox="0 0 86 86"><defs><style>.cls-1{fill:#ede8b6;stroke:#000;stroke-miterlimit:10;stroke-width:3px;}</style></defs><circle class="cls-1" cx="43" cy="43" r="35.24"/><path d="M65,32.26a7.69,7.69,0,0,1-.83,0c-.45,0-.88-.13-1.33-.18l0,0c0-.5,0-1,0-1.48,0-.21,0-.22-.23-.22A9.31,9.31,0,0,1,61,30.18a11.37,11.37,0,0,1-3.79-1.34.26.26,0,0,0-.19-.07h0l-.3-.26c0-.09-.08-.13-.13-.19a11.2,11.2,0,0,1-1.17-1.65A10.21,10.21,0,0,1,54,21.34V21.2c0-.12,0-.17-.16-.17-.69,0-1.37,0-2.06,0l0,0a8.62,8.62,0,0,1-.1-1.68c0-.25,0-.25-.25-.26H43.93c-.49,0-.42-.06-.42.43V51a6.45,6.45,0,0,1-.08,1.17,6.83,6.83,0,0,1-8.11,5.58,8.83,8.83,0,0,1-1.6-.53l-.13-.12a2,2,0,0,0-.12-.19,6.63,6.63,0,0,1-1.11-5,6.56,6.56,0,0,1,2.47-4.18,6.73,6.73,0,0,1,5.26-1.4c.34.05.67.15,1,.21a.49.49,0,0,0,0-.29V38.54c0-.1,0-.15-.14-.16a12.36,12.36,0,0,0-2.19-.1h0l0,0c0-.54,0-1.09,0-1.63,0-.16-.08-.18-.21-.2a15.19,15.19,0,0,0-2.94-.07,14.83,14.83,0,0,0-9.33,4.23,14.71,14.71,0,0,0-3.14,4.5,14.49,14.49,0,0,0-1.26,5.09,15,15,0,0,0,0,2.32,15.22,15.22,0,0,0,.62,3.13,14.79,14.79,0,0,0,5,7.23,3.64,3.64,0,0,0,.77.53l.37.33.19.21a14.77,14.77,0,0,0,9.15,4A14.88,14.88,0,0,0,54,53.07V36.74l.27.17a19.26,19.26,0,0,0,8.43,3.23,17.5,17.5,0,0,0,2.29.15c.22,0,.22,0,.23-.21V32.61a1,1,0,0,1,0-.17C65.2,32.3,65.15,32.25,65,32.26ZM31.48,55.32l.13.18ZM54,25.81c-.22-.29-.44-.57-.63-.88A10.19,10.19,0,0,0,54,25.81Zm-1.69-3.19c.1.29.18.59.3.87C52.45,23.21,52.37,22.91,52.27,22.62ZM38.75,44.53a.27.27,0,0,1,0,.09.2.2,0,0,1-.11,0A.13.13,0,0,0,38.75,44.53ZM24.23,53.78s0,.11,0,.16,0-.06,0-.08Z"/></svg>