<svg id="Layer_1" data-name="Layer 1" xmlns="http://www.w3.org/2000/svg" viewBox="0 0 86 86"><defs><style>.cls-1{fill:#ede8b6;stroke:#000;stroke-miterlimit:10;stroke-width:3px;}</style></defs><circle class="cls-1" cx="43" cy="43" r="35.24"/><path d="M35.88,63.3C53.09,63.3,62.5,49,62.5,36.67c0-.4,0-.81,0-1.21a19.18,19.18,0,0,0,4.67-4.84,19,19,0,0,1-5.38,1.47,9.41,9.41,0,0,0,4.12-5.18A18.82,18.82,0,0,1,60,29.18a9.37,9.37,0,0,0-16,8.54,26.56,26.56,0,0,1-19.29-9.78,9.35,9.35,0,0,0,2.9,12.49,9.09,9.09,0,0,1-4.24-1.17v.12a9.36,9.36,0,0,0,7.5,9.18,9.48,9.48,0,0,1-2.46.33,9.22,9.22,0,0,1-1.76-.17,9.36,9.36,0,0,0,8.74,6.5,18.77,18.77,0,0,1-11.62,4,18.46,18.46,0,0,1-2.24-.13A26.48,26.48,0,0,0,35.88,63.3"/></svg>