<?xml version="1.0" encoding="UTF-8" standalone="no"?>
<!DOCTYPE svg PUBLIC "-//W3C//DTD SVG 1.1//EN" "http://www.w3.org/Graphics/SVG/1.1/DTD/svg11.dtd">
<svg width="100%" height="100%" viewBox="0 0 102 209" version="1.1" xmlns="http://www.w3.org/2000/svg" xmlns:xlink="http://www.w3.org/1999/xlink" xml:space="preserve" xmlns:serif="http://www.serif.com/" style="fill-rule:evenodd;clip-rule:evenodd;stroke-linejoin:round;stroke-miterlimit:2;">
    <g transform="matrix(1,0,0,1,-532.777,-192.924)">
        <g>
            <g transform="matrix(0.313987,152.942,-152.942,0.313987,584.231,221.185)">
                <path d="M-0.18,-0.188C-0.184,-0.123 -0.157,-0.069 -0.102,-0.034C-0.047,0 0.026,0.003 0.083,-0.028C0.128,-0.052 0.166,-0.097 0.217,-0.097C0.257,-0.097 0.293,-0.065 0.3,-0.027C0.306,0.012 0.281,0.054 0.244,0.066C0.211,0.077 0.176,0.067 0.142,0.066C0.108,0.065 0.068,0.08 0.061,0.113C0.088,0.085 0.139,0.101 0.162,0.131C0.198,0.178 0.199,0.241 0.237,0.287C0.242,0.293 0.247,0.299 0.252,0.304C0.284,0.332 0.326,0.345 0.369,0.332C0.388,0.327 0.405,0.316 0.423,0.307C0.441,0.299 0.452,0.28 0.463,0.265C0.476,0.248 0.489,0.231 0.503,0.215C0.521,0.194 0.543,0.176 0.569,0.166C0.584,0.161 0.599,0.159 0.613,0.152C0.627,0.145 0.639,0.131 0.637,0.116C0.684,0.077 0.702,0.038 0.679,-0.019C0.686,-0.033 0.682,-0.052 0.67,-0.063C0.658,-0.074 0.639,-0.076 0.625,-0.067C0.612,-0.059 0.603,-0.042 0.587,-0.04C0.562,-0.036 0.552,-0.071 0.547,-0.096C0.53,-0.198 0.446,-0.282 0.347,-0.312C0.255,-0.339 0.154,-0.33 0.079,-0.268C0.07,-0.261 0.062,-0.254 0.053,-0.246C0.023,-0.22 -0.007,-0.192 -0.043,-0.176C-0.09,-0.155 -0.153,-0.156 -0.184,-0.197C-0.183,-0.194 -0.181,-0.191 -0.18,-0.188Z" style="fill:url(#_Linear1);fill-rule:nonzero;"/>
            </g>
            <g transform="matrix(18.9795,156.895,-156.895,18.9795,578.828,219.439)">
                <path d="M-0.136,-0.233C-0.148,-0.172 -0.128,-0.117 -0.079,-0.077C-0.048,-0.052 -0,-0.032 0.042,-0.038C0.066,-0.041 0.089,-0.051 0.109,-0.063C0.144,-0.085 0.175,-0.113 0.212,-0.131C0.249,-0.148 0.296,-0.154 0.329,-0.13C0.362,-0.106 0.371,-0.06 0.363,-0.02C0.355,0.026 0.322,0.071 0.276,0.078C0.251,0.081 0.227,0.073 0.206,0.063C0.196,0.059 0.187,0.052 0.177,0.051C0.169,0.05 0.161,0.05 0.152,0.049C0.121,0.043 0.076,0.046 0.062,0.081C0.062,0.081 0.061,0.083 0.061,0.083C0.09,0.06 0.137,0.08 0.156,0.112C0.185,0.161 0.179,0.221 0.21,0.271C0.213,0.275 0.216,0.28 0.219,0.284C0.223,0.288 0.225,0.288 0.231,0.288C0.248,0.287 0.263,0.293 0.279,0.293C0.3,0.293 0.323,0.286 0.343,0.279C0.364,0.272 0.385,0.263 0.404,0.251C0.413,0.246 0.422,0.239 0.431,0.233C0.434,0.23 0.453,0.212 0.456,0.212C0.456,0.212 0.381,0.196 0.372,0.194C0.368,0.193 0.363,0.193 0.359,0.192C0.354,0.19 0.348,0.188 0.343,0.186C0.338,0.185 0.325,0.178 0.32,0.179C0.411,0.16 0.498,0.126 0.577,0.079C0.523,0.071 0.474,0.039 0.444,-0.006C0.47,0.005 0.496,0.016 0.522,0.027C0.518,0.016 0.515,0.006 0.511,-0.005C0.496,-0.048 0.477,-0.089 0.453,-0.128C0.441,-0.147 0.429,-0.166 0.415,-0.184C0.399,-0.204 0.383,-0.226 0.363,-0.242C0.353,-0.25 0.342,-0.254 0.331,-0.259C0.315,-0.267 0.302,-0.277 0.285,-0.283C0.267,-0.29 0.247,-0.293 0.228,-0.292C0.187,-0.291 0.148,-0.277 0.108,-0.266C0.104,-0.265 0.099,-0.264 0.094,-0.263C0.062,-0.241 0.03,-0.218 -0.006,-0.207C-0.054,-0.191 -0.114,-0.2 -0.14,-0.243C-0.139,-0.24 -0.137,-0.237 -0.136,-0.233Z" style="fill:url(#_Linear2);fill-rule:nonzero;"/>
            </g>
            <g transform="matrix(57.9905,0,0,-57.9905,553.198,364.794)">
                <path d="M0,0.597L0.083,0.295L0.277,0.234L0.335,0.042L0.205,0.175L0.114,0.184L0.114,0.184L0.304,-0.506L0.409,-0.566C0.409,-0.566 0.466,-0.617 0.506,-0.618C0.514,-0.619 0.528,-0.623 0.541,-0.627C0.615,-0.629 0.69,-0.627 0.763,-0.635L0.947,0.35L0.676,0.234L0.963,0.436L1,0.635L0,0.597Z" style="fill:url(#_Linear3);fill-rule:nonzero;"/>
            </g>
            <g transform="matrix(1,0,0,1,604.082,401.346)">
                <path d="M0,-73.104L-8.019,-60.546L-20.704,-47.672L-8.203,-43.529L-12.439,-40.082L-13.886,-28.394L-10.222,-23.89L-11.27,-13.692L-14.781,-19.686L-23.689,-18.634L-19.126,-5.956L-16.544,-2.531L-6.646,0.266L4.27,-56.93L-11.653,-50.113L4.949,-61.821L7.106,-73.37L0,-73.104Z" style="fill:rgb(15,122,114);fill-rule:nonzero;"/>
            </g>
            <g transform="matrix(-87.0234,68.2479,68.2479,87.0234,603.681,310.988)">
                <path d="M0.184,-0.086C0.187,-0.089 0.201,-0.099 0.204,-0.102C0.246,-0.133 0.295,-0.156 0.343,-0.175C0.347,-0.176 0.351,-0.178 0.355,-0.179C0.366,-0.184 0.377,-0.187 0.388,-0.191C0.418,-0.201 0.449,-0.209 0.48,-0.218C0.486,-0.205 0.492,-0.193 0.499,-0.181C0.508,-0.164 0.518,-0.148 0.529,-0.133C0.522,-0.131 0.514,-0.13 0.507,-0.128C0.449,-0.112 0.391,-0.091 0.338,-0.063C0.331,-0.059 0.324,-0.056 0.317,-0.052C0.296,-0.04 0.275,-0.027 0.255,-0.013C0.235,0.004 0.216,0.021 0.197,0.04C0.193,0.044 0.189,0.049 0.185,0.053C0.146,0.096 0.111,0.143 0.081,0.193C0.077,0.2 0.068,0.217 0.067,0.218C0.067,0.218 0.067,0.218 0.067,0.218C0.046,0.193 0.023,0.169 -0.002,0.148C0.018,0.116 0.036,0.085 0.057,0.054C0.062,0.048 0.066,0.041 0.071,0.035C0.073,0.033 0.074,0.03 0.076,0.028C0.106,-0.011 0.139,-0.05 0.178,-0.082C0.18,-0.083 0.182,-0.085 0.184,-0.086Z" style="fill:url(#_Linear4);fill-rule:nonzero;"/>
            </g>
            <g transform="matrix(1,0,0,1,612.736,329.585)">
                <path d="M0,4.919L-3.981,6.669C-3.981,6.669 -4.006,6.657 -4.06,6.634C-5.005,6.168 -14.569,1.748 -32.755,1.741C-51.933,1.731 -59.83,7.226 -59.83,7.226L-60.138,7.135L-64.147,5.91C-54.104,1.296 -43.242,-1.715 -32.187,-2.307C-21.13,-2.057 -10.187,0.617 -0.012,4.913C-0.006,4.919 0,4.919 0,4.919" style="fill:rgb(15,122,114);fill-rule:nonzero;"/>
            </g>
            <g transform="matrix(-87.0232,68.2477,68.2477,87.0232,603.74,311.063)">
                <path d="M0.184,-0.087C0.187,-0.09 0.201,-0.1 0.204,-0.103C0.218,-0.097 0.231,-0.091 0.245,-0.086C0.253,-0.076 0.261,-0.066 0.27,-0.056C0.264,-0.063 0.26,-0.072 0.256,-0.079C0.256,-0.08 0.255,-0.08 0.255,-0.081C0.275,-0.072 0.296,-0.062 0.317,-0.053C0.315,-0.053 0.303,-0.045 0.301,-0.044C0.295,-0.04 0.29,-0.037 0.284,-0.033C0.278,-0.029 0.273,-0.026 0.268,-0.022C0.267,-0.022 0.266,-0.021 0.265,-0.02C0.263,-0.018 0.261,-0.016 0.258,-0.017C0.257,-0.017 0.256,-0.019 0.255,-0.02C0.244,-0.031 0.235,-0.043 0.225,-0.056C0.234,-0.041 0.243,-0.028 0.247,-0.011C0.248,-0.01 0.248,-0.009 0.248,-0.009C0.247,-0.008 0.247,-0.007 0.246,-0.007C0.239,0.001 0.231,0.007 0.223,0.015C0.218,0.019 0.214,0.023 0.21,0.027C0.208,0.029 0.197,0.037 0.197,0.039C0.191,-0.001 0.184,-0.042 0.178,-0.082C0.18,-0.084 0.182,-0.086 0.184,-0.087ZM0.185,0.052C0.182,0.052 0.168,0.071 0.166,0.074C0.161,0.08 0.157,0.088 0.149,0.089C0.144,0.09 0.139,0.088 0.135,0.086C0.13,0.084 0.126,0.082 0.121,0.08C0.13,0.085 0.138,0.092 0.146,0.099C0.139,0.106 0.132,0.114 0.125,0.122C0.121,0.118 0.117,0.114 0.112,0.11C0.116,0.115 0.119,0.12 0.122,0.127C0.123,0.13 0.121,0.133 0.119,0.136C0.109,0.148 0.1,0.161 0.092,0.175C0.09,0.178 0.081,0.189 0.081,0.192C0.076,0.17 0.072,0.149 0.069,0.127C0.075,0.133 0.081,0.138 0.088,0.144C0.084,0.138 0.081,0.132 0.078,0.126C0.076,0.123 0.074,0.12 0.072,0.116C0.079,0.121 0.086,0.126 0.093,0.132C0.083,0.124 0.074,0.108 0.066,0.098C0.065,0.097 0.064,0.096 0.063,0.094C0.061,0.081 0.059,0.067 0.057,0.053C0.062,0.047 0.066,0.041 0.071,0.034C0.109,0.04 0.147,0.046 0.185,0.052ZM0.355,-0.18C0.366,-0.184 0.377,-0.188 0.388,-0.192C0.406,-0.183 0.424,-0.174 0.442,-0.164C0.445,-0.16 0.448,-0.156 0.451,-0.152C0.457,-0.144 0.462,-0.137 0.469,-0.131C0.463,-0.14 0.458,-0.15 0.452,-0.159C0.471,-0.149 0.489,-0.139 0.507,-0.128C0.49,-0.124 0.474,-0.119 0.457,-0.114C0.448,-0.111 0.44,-0.108 0.432,-0.105C0.428,-0.103 0.416,-0.096 0.412,-0.1C0.408,-0.104 0.403,-0.109 0.399,-0.114C0.401,-0.111 0.403,-0.107 0.405,-0.104C0.406,-0.101 0.408,-0.098 0.406,-0.095C0.403,-0.092 0.396,-0.091 0.392,-0.089C0.386,-0.086 0.379,-0.084 0.373,-0.081C0.367,-0.078 0.361,-0.075 0.355,-0.072C0.352,-0.071 0.338,-0.066 0.338,-0.064C0.341,-0.082 0.344,-0.1 0.346,-0.118C0.347,-0.126 0.349,-0.134 0.35,-0.142C0.351,-0.145 0.354,-0.159 0.353,-0.161C0.359,-0.151 0.364,-0.141 0.37,-0.13C0.368,-0.135 0.35,-0.177 0.354,-0.18C0.354,-0.18 0.355,-0.18 0.355,-0.18Z" style="fill:url(#_Linear5);fill-rule:nonzero;"/>
            </g>
            <g transform="matrix(1,0,0,1,613.928,326.772)">
                <path d="M0,-3.033C-0.678,0.518 -1.08,4.117 -1.192,7.732C-1.192,7.732 -1.198,7.732 -1.204,7.726C-1.343,7.667 -1.482,7.61 -1.621,7.552C-1.667,6.891 -1.762,6.201 -1.744,5.822C-1.694,4.782 -1.59,3.74 -1.432,2.704C-1.159,0.94 -1.011,-0.775 -0.695,-2.535C-0.685,-2.601 -0.673,-2.668 -0.698,-2.733C-0.729,-2.8 -0.802,-2.841 -0.875,-2.875C-1.244,-3.055 -6.398,-4.845 -6.421,-4.785C-7.316,-2.811 -7.011,-0.545 -7.863,1.47C-7.85,-0.73 -7.316,-2.794 -7.073,-4.949C-7.062,-5.033 -7.058,-5.136 -7.107,-5.207C-7.15,-5.266 -7.229,-5.295 -7.301,-5.318C-7.917,-5.531 -8.545,-5.702 -9.162,-5.908C-12.557,-7.034 -15.992,-8.026 -19.46,-8.887C-20.462,-9.136 -21.703,-9.705 -22.187,-8.796C-22.749,-7.748 -23.146,-6.618 -23.368,-5.448C-23.344,-6.644 -23.257,-7.974 -23.209,-9.171C-25.923,-9.79 -28.682,-10.198 -31.456,-10.395C-32.857,-10.494 -32.3,-9.049 -32.25,-8.082C-32.181,-6.772 -32.095,-5.458 -31.996,-4.149C-32.34,-5.791 -32.684,-7.431 -33.034,-9.073C-33.099,-9.379 -33.17,-9.708 -33.378,-9.951C-33.703,-10.337 -34.269,-10.406 -34.78,-10.429C-37.42,-10.555 -39.913,-10.054 -42.449,-9.318C-42.255,-8.829 -42.235,-8.263 -42.401,-7.762C-42.554,-8.307 -42.707,-8.845 -42.853,-9.385C-47.328,-8.414 -51.638,-7.307 -56.017,-5.989C-55.601,-4.386 -55.191,-2.781 -54.776,-1.171C-55.271,-2.51 -55.857,-3.816 -56.531,-5.074C-56.575,-5.157 -56.624,-5.241 -56.703,-5.288C-56.812,-5.352 -56.95,-5.326 -57.076,-5.294C-60.057,-4.551 -63.116,-3.77 -65.619,-1.995C-65.916,-1.792 -66.213,-1.541 -66.31,-1.196C-66.366,-0.979 -66.333,-0.746 -66.305,-0.517C-66.158,0.466 -66.016,1.449 -65.869,2.433C-65.916,2.482 -65.964,2.512 -66.012,2.531C-66.239,1.014 -66.527,-0.502 -66.863,-2C-63.542,-3.337 -60.354,-4.709 -57.073,-5.919C-55.848,-6.371 -54.604,-6.799 -53.343,-7.19C-52.918,-7.317 -52.493,-7.45 -52.068,-7.571C-46.57,-9.165 -40.75,-10.541 -35,-10.708C-34.52,-10.727 -34.033,-10.734 -33.552,-10.73C-32.802,-10.76 -32.044,-10.765 -31.287,-10.747C-25.804,-10.651 -20.227,-9.494 -14.948,-8.144C-14.634,-8.065 -14.32,-7.98 -14.012,-7.894C-13.173,-7.668 -12.346,-7.428 -11.525,-7.17C-7.624,-5.956 -3.905,-4.47 0,-3.033" style="fill:rgb(205,227,163);fill-rule:nonzero;"/>
            </g>
            <g transform="matrix(0.998982,0.0451108,0.0451108,-0.998982,589.882,326.934)">
                <path d="M0.202,0.004C-0.091,0.018 -0.202,0.387 -0.231,0.678C-0.5,3.362 -0.122,5.894 0.202,8.561C0.22,8.715 0.244,8.88 0.351,8.995C0.264,8.298 0.259,0.002 0.202,0.004" style="fill:rgb(15,122,114);fill-rule:nonzero;"/>
            </g>
            <g transform="matrix(1,0,0,1,563.689,321.247)">
                <path d="M0,7.707C0.116,7.213 0.059,6.697 -0.007,6.194C-0.255,4.309 -0.611,2.439 -0.967,0.571C-0.991,0.445 -1.018,0.312 -1.103,0.215C-1.234,0.063 -1.5,0 -1.689,0.001C-1.867,1.032 -1.164,2.688 -0.922,3.741C-0.619,5.064 -0.312,6.386 0,7.707" style="fill:rgb(15,122,114);fill-rule:nonzero;"/>
            </g>
        </g>
    </g>
    <defs>
        <linearGradient id="_Linear1" x1="0" y1="0" x2="1" y2="0" gradientUnits="userSpaceOnUse" gradientTransform="matrix(1,4.33681e-19,4.33681e-19,-1,0,0.00536346)"><stop offset="0" style="stop-color:rgb(250,162,80);stop-opacity:1"/><stop offset="0.01" style="stop-color:rgb(250,162,80);stop-opacity:1"/><stop offset="0.99" style="stop-color:rgb(193,17,20);stop-opacity:1"/><stop offset="1" style="stop-color:rgb(193,17,20);stop-opacity:1"/></linearGradient>
        <linearGradient id="_Linear2" x1="0" y1="0" x2="1" y2="0" gradientUnits="userSpaceOnUse" gradientTransform="matrix(1,0,0,-1,0,0.000268163)"><stop offset="0" style="stop-color:rgb(255,234,99);stop-opacity:1"/><stop offset="0.01" style="stop-color:rgb(255,234,99);stop-opacity:1"/><stop offset="0.99" style="stop-color:rgb(193,17,20);stop-opacity:1"/><stop offset="1" style="stop-color:rgb(193,17,20);stop-opacity:1"/></linearGradient>
        <linearGradient id="_Linear3" x1="0" y1="0" x2="1" y2="0" gradientUnits="userSpaceOnUse" gradientTransform="matrix(1,0,0,-1,0,-8.63934e-06)"><stop offset="0" style="stop-color:rgb(65,209,99);stop-opacity:1"/><stop offset="0.25" style="stop-color:rgb(48,185,90);stop-opacity:1"/><stop offset="1" style="stop-color:rgb(19,133,124);stop-opacity:1"/></linearGradient>
        <linearGradient id="_Linear4" x1="0" y1="0" x2="1" y2="0" gradientUnits="userSpaceOnUse" gradientTransform="matrix(1,0,0,-1,0,6.92176e-06)"><stop offset="0" style="stop-color:rgb(65,209,99);stop-opacity:1"/><stop offset="0.25" style="stop-color:rgb(48,185,90);stop-opacity:1"/><stop offset="1" style="stop-color:rgb(19,133,124);stop-opacity:1"/></linearGradient>
        <linearGradient id="_Linear5" x1="0" y1="0" x2="1" y2="0" gradientUnits="userSpaceOnUse" gradientTransform="matrix(1,0,0,-1,0,4.11319e-06)"><stop offset="0" style="stop-color:rgb(255,202,43);stop-opacity:1"/><stop offset="1" style="stop-color:rgb(204,111,45);stop-opacity:1"/></linearGradient>
    </defs>
</svg>
