
<svg width="121px" height="260px" viewBox="0 0 121 260" version="1.1" xmlns="http://www.w3.org/2000/svg" xmlns:xlink="http://www.w3.org/1999/xlink">
    <g id="Page-1" stroke="none" stroke-width="1" fill="none" fill-rule="evenodd">
        <path d="M41.366725,48.9466024 L29.90284,45.7486962 C29.90284,45.7486962 25.4125,44.8505606 28.156235,36.0640081 C30.89997,27.2774557 36.34168,29.7365516 36.34168,29.7365516 L46.511305,32.6967525 L50.52635,33.9390724 L44.877,41.8798496 L44.403455,47.1725338 L41.366725,48.9466024 Z" fill="#3F3D56"></path>
        <polygon fill="#3F3D56" points="63.518 25.7312937 67.115 40.1253685 48.686 58.0206507 47.1015 58.4184127 42.875 57.2286334 39.278 42.8345585 42.9215 38.9962054 39.197 38.0183321 47.1445 30.288524 51.2915 31.1601939 54.618 27.8513551 52.3725 26.9521324 52.161 26.1055106 54.881 23.9609021"></polygon>
        <polygon fill="#EB4242" points="46.252 46.0341881 48.6325 55.5594357 59.616 45.1560058 56.866 35.4980038"></polygon>
        <polygon stroke="#3F3D56" stroke-width="0.5" points="63.518 25.7312937 64.0225 27.7496603 45.697 45.6108772 44.1125 46.0081382 40.0185 44.8985125 39.7925 44.8930019 39.278 42.8345585 42.9215 38.9962054 39.197 38.0183321 47.1445 30.288524 51.2915 31.1601939 54.618 27.8513551 52.3725 26.9521324 52.161 26.1055106 54.881 23.9609021"></polygon>
        <ellipse id="Oval" fill="#EB4242" transform="translate(55.053015, 25.548846) rotate(-14.056520) translate(-55.053015, -25.548846) " cx="55.053015" cy="25.548846" rx="1.52475769" ry="1.03640878"></ellipse>
        <ellipse id="Oval" fill="#EB4242" transform="translate(43.410818, 40.954192) rotate(-14.056520) translate(-43.410818, -40.954192) " cx="43.4108182" cy="40.9541924" rx="1.52475769" ry="1.03640878"></ellipse>
        <path d="M33.75,66.878119 L36.25,58.3618042 C36.25,58.3618042 29.75,42.8320537 37.25,41.3291747 C44.75,39.8262956 45.25,55.8570058 45.25,55.8570058 L42.25,65.3752399 L33.75,66.878119 Z" fill="#FFB6B6"></path>
        <ellipse id="Oval" fill="#FFB6B6" cx="80.16584" cy="30.4196602" rx="19.861385" ry="19.8995067"></ellipse>
        <path d="M73.7401,44.4663746 C73.7401,44.4663746 72.57178,59.0983653 69.65099,60.2689227 C66.7302,61.4394802 101.195545,69.6333973 101.195545,69.6333973 L92.43317,59.6836415 C92.43317,59.6836415 90.68067,44.4663746 94.7698,40.9546973 L73.7401,44.4663746 Z" fill="#FFB6B6"></path>
        <path d="M45.75,62.3694818 L37.75,61.3675624 C37.75,61.3675624 28.25,66.3771593 28.25,72.8896353 C28.25,79.4021113 22.75,89.9222649 22.75,89.9222649 C22.75,89.9222649 18.75,103.949136 27.75,104.951056 C36.75,105.952975 44.75,89.9222649 44.75,89.9222649 L45.75,62.3694818 Z" fill="#FFFFFF"></path>
        <path d="M41.25,142.022073 C41.25,142.022073 23.75,125.490403 18.75,126.492322 C13.75,127.494242 3.75,128.997121 3.75,136.511516 C3.75,144.025912 20.25,161.559501 20.25,161.559501 C20.25,161.559501 32.75,189.112284 44.75,190.114203 C52.6438605,190.831544 60.4901044,192.002376 68.25,193.620921 C68.25,193.620921 62.75,213.659309 65.75,219.169866 C68.75,224.680422 80.25,231.192898 81.25,230.691939 C82.25,230.190979 96.25,217.166027 102.25,198.630518 C108.25,180.09501 112.25,166.068138 106.75,165.066219 C101.25,164.064299 41.25,142.022073 41.25,142.022073 Z" fill="#2E2E3C"></path>
        <path d="M5.25,135.008637 C5.25,135.008637 1.75,134.507678 2.25,143.023992 C2.75,151.540307 4.25,182.098848 6.75,188.110365 C9.25,194.121881 9.75,201.135317 8.75,203.640115 C7.75,206.144914 5.75,210.152591 9.25,210.653551 C12.75,211.154511 27.25,209.150672 28.75,208.649712 C30.25,208.148752 31.75,199.632438 30.75,199.632438 C29.75,199.632438 27.25,199.131478 28.25,195.62476 C29.25,192.118042 29.75,192.118042 28.25,191.116123 C26.75,190.114203 22.75,188.611324 23.75,187.609405 C24.75,186.607486 25.75,163.06238 25.75,163.06238 L5.25,135.008637 Z" fill="#2E2E3C"></path>
        <path d="M10.25,209.150672 C10.25,209.150672 1.75,206.645873 0.75,212.15643 C0.75,212.15643 -0.75,220.672745 5.75,223.678503 C9.94464573,225.664717 13.9596575,228.011303 17.75,230.691939 C17.75,230.691939 28.25,234.699616 28.75,229.690019 C29.25,224.680422 26.75,206.645873 26.75,206.645873 L10.25,209.150672 Z" fill="#2F2E41"></path>
        <path d="M66.75,215.162188 L82.75,202.137236 C82.75,202.137236 79.75,218.167946 83.75,221.173704 L85.577145,226.525732 L80.460645,230.719151 C80.460645,230.719151 64.75,228.18714 66.75,215.162188 Z" fill="#2E2E3C"></path>
        <path d="M89.25,193.119962 C89.25,193.119962 78.75,196.12572 80.25,206.645873 C81.75,217.166027 83.67323,228.595422 83.67323,228.595422 C83.67323,228.595422 84.25,256.741843 91.75,258.745681 C99.25,260.74952 101.25,256.741843 101.25,256.741843 C101.25,256.741843 109.77539,234.747378 107.25,228.18714 C104.193115,220.246543 99.78833,211.330448 101.25,208.649712 C102.68823,206.011909 100.25,191.617083 89.25,193.119962 Z" fill="#2F2E41"></path>
        <path d="M95.25,54.8550864 C95.25,54.8550864 91.25,55.3560461 84.75,56.3579655 C78.25,57.3598848 73.75,52.3502879 70.25,53.3522073 C66.75,54.3541267 37.75,61.3675624 37.75,61.3675624 L42.25,95.9337812 C42.25,95.9337812 36.75,136.010557 37.75,143.023992 C38.75,150.037428 25.75,149.035509 33.25,157.551823 C40.75,166.068138 53.75,173.582534 80.25,171.077735 C106.75,168.572937 110.25,169.073896 110.25,165.066219 C110.25,161.058541 104.25,126.993282 106.25,123.987524 C108.25,120.981766 112.25,117.475048 110.25,113.96833 C108.25,110.461612 106.25,108.457774 109.25,105.452015 C112.25,102.446257 113.75,99.440499 113.75,97.93762 C113.75,96.4347409 120.75,71.8877159 120.75,71.8877159 C120.75,71.8877159 117.75,59.8646833 114.25,59.3637236 C110.75,58.8627639 107.75,56.3579655 105.25,56.3579655 C102.75,56.3579655 101.25,56.8589251 99.75,56.3579655 L95.25,54.8550864 Z" fill="#FFFFFF"></path>
        <path d="M51.622145,26.8436246 C53.92632,26.540043 56.302315,25.1563623 57.578045,24.3089689 C59.02928,25.7143262 67.96569,33.8185315 83.322235,36.1703268 C83.322235,36.1703268 83.35638,35.8655079 83.44442,35.3498901 L88.706895,36.2497389 L98.440595,35.3004203 C98.39166,35.4661478 98.361695,35.5569668 98.361695,35.5569668 C98.361695,35.5569668 99.753495,35.1809765 100.23643,32.0291385 C100.328977,31.4251514 100.44089,30.8244907 100.57217,30.2271564 C101.35522,26.6490368 103.25417,13.7527863 92.477595,5.13434591 C84.63184,-1.14017424 75.5888,0.839778772 69.871645,3.23434106 C65.1774597,5.18123228 61.4774176,8.96005618 59.6245,13.6996696 C59.1569854,14.8727055 58.8449476,16.1020782 58.69636,17.3563748 L58.472585,17.99335 C56.736755,18.235534 53.251645,16.7755771 51.378585,17.4665558 C48.81852,18.4109851 47.55931,22.2821211 47.302085,23.4400393 C47.04486,24.5979575 48.24753,27.2881962 51.622145,26.8436246 Z M84.774325,30.4829114 C86.160605,26.9085239 88.77652,23.0046402 93.56903,23.1992079 C98.53963,23.4010095 99.411305,27.3555954 99.236,30.7374841 L86.87,31.1881424 L84.774325,30.4829114 Z" id="Shape" fill="#2F2E41" fill-rule="nonzero"></path>
        <ellipse id="Oval" fill="#2F2E41" transform="translate(83.777757, 1.453240) rotate(-80.314840) translate(-83.777757, -1.453240) " cx="83.7777569" cy="1.45324046" rx="1" ry="2.18773884"></ellipse>
    </g>
</svg>
