<?xml version="1.0" encoding="UTF-8"?>
<svg version="1.1" viewBox="0 0 248 213" xmlns="http://www.w3.org/2000/svg">
<g fill-rule="evenodd">
<ellipse cx="128.65" cy="210.16" rx="64.1" ry="2.2859" fill="#B3947D"/>
<path d="m106.96 210.32s16.044-42.721 7.1994-69.011c-8.8449-26.29-15.839-25.263-15.839-25.263s-11.93-3.0808-26.74 5.9563-18.718 11.707-27.152 8.0102c-8.4335-3.697-10.079-9.4479-30.649-8.8317 0 0 10.902-5.9563 21.598-0.61617s17.896 8.2156 28.797 0c10.902-8.2156 25.918-18.896 40.522-12.529 0 0-10.696-10.475-14.193-10.475s-19.953-1.6431-25.301-7.1886c0 0-7.6108-5.3401-21.187 7.8048-13.576 13.145-10.285 13.145-22.421 12.118-12.136-1.0269-21.598-6.9832-21.598-6.9832s14.193 5.7509 22.832 2.8754 16.044-13.761 23.655-17.458c7.6108-3.697 12.136-8.6263 22.421-3.2862 0 0-4.3196-17.663-12.547-16.226-8.2278 1.4377 3.9082-4.1078 3.9082-4.1078s-2.2627-29.987-6.5823-32.041c-4.3196-2.0539-1.6456-7.394-9.6677-8.4209 0 0 9.8734-1.2323 11.725 5.5455 1.8513 6.7778 14.604 43.337 14.604 43.337s7.8164 15.61 16.456 11.913c8.6392-3.697-3.2911-24.441-3.2911-24.441l-14.81-6.7778s11.108-0.41078 17.896 5.9563c6.788 6.3671 7.1994 26.906 7.1994 26.906s17.073 2.4647 21.187 11.707c0 0 2.674-8.2156-2.4684-13.145-1.2856-1.2323-2.6355-3.3761-3.9371-5.8985-4.9778-9.6463-6.6666-20.642-5.1006-31.381 0.76631-5.2548 1.2379-10.393 0.39851-11.604-1.8513-2.6701-9.6677-19.101-10.285-23.414-0.61709-4.3132 0.61709-13.35 0.61709-13.35s0.2057 11.091 2.674 14.583c2.4684 3.4916 9.462 20.744 9.462 20.744s0 21.771 5.7595 32.451c5.7595 10.68 16.867 22.593 16.25 30.398v4.5186s12.342-11.707 11.519-15.61-1.8513-13.145-9.6677-18.69c-7.8165-5.5455-12.959-14.377-7.405-27.111s5.5538-14.993 5.5538-14.993l-3.7025 15.815s-2.057 14.172 3.7025 19.101c5.7595 4.9293 13.37 13.966 13.37 13.966l-1.6456-29.576 5.3481 11.707s11.519-14.788 25.095-19.717 22.009-22.182 22.009-22.182l11.519-9.0371-9.462 11.296s-2.8797 13.35-19.13 22.798c-16.25 9.4479-26.74 23.414-27.358 32.041s-1.2342 16.226-1.2342 16.226 30.443-1.0269 37.231-14.377c6.788-13.35 7.4051-39.845 13.987-44.159s18.924-9.6533 18.924-9.6533l-13.782 11.296s-2.8797 9.2425-2.2627 15.815c0.61709 6.5724-4.5253 12.734-4.5253 12.734l-3.9082 11.502-4.3196 9.8587s17.69 0.41078 26.946 10.886c9.2563 10.475 32.294 13.556 32.294 13.556l-12.959 3.4916s-12.342-4.1078-24.066-11.707c-11.725-7.5994-10.49-14.377-25.095-6.7778-14.604 7.5994-34.557 13.966-34.557 13.966s11.519-5.3401 32.294 7.5994c20.775 12.94-10.285-2.2593-19.541 2.6701s-13.576-1.2323-17.278 11.091-10.49 46.007-2.674 64.903l7.8164 18.896h-44.43z" fill="#fff"/>
<path d="m184.41 74.351c-5.5147 10.846-26.643 13.558-34.375 14.194-0.21682 2.7843-0.35978 4.5451-0.35978 4.5451s30.443-1.027 37.231-14.377c6.7879-13.35 7.4051-39.845 13.987-44.159 0.69806-0.45742 1.4614-0.92645 2.2674-1.3994 0.22611-0.82897 0.37859-1.3196 0.37859-1.3196l13.782-11.296s-12.342 5.3401-18.924 9.6533-7.1994 30.808-13.987 44.159z" opacity=".1"/>
<path d="m148.94 53.601c-0.04491 5.0568-0.70222 8.0645-0.70222 8.0645s11.514-14.782 25.086-19.714c0.80213-0.5067 1.6159-1.0056 2.4488-1.4899 16.25-9.4479 19.13-22.798 19.13-22.798l9.462-11.296-11.519 9.0371s-8.4335 17.253-22.009 22.182c-9.254 3.36-17.551 11.3-21.896 16.015z" opacity=".1"/>
<path d="m131.16 102.54v4.5186s12.342-11.707 11.519-15.61c-0.62921-2.9844-1.3826-9.0909-5.1966-14.28 1.7192 3.9212 2.2424 7.7462 2.7002 9.9176 0.59003 2.7984-5.5892 9.6098-9.1328 13.24 0.12432 0.73076 0.16132 1.4737 0.11024 2.2131z" opacity=".1"/>
<path d="m114.61 71.529c0.097744 0.20816 0.19853 0.413 0.30534 0.6111 3.1543 5.8492 7.9097 12.067 11.468 17.778-2.8756-5.6559-7.88-12.124-11.773-18.389z" opacity=".1"/>
<path d="m124.64 62.785c-1.6587-4.0582-1.932-8.8871-0.026397-14.546-0.023849-2.0507 0.094662-4.1006 0.35468-6.1349l3.2389-13.835c-0.59716 1.9951-1.9635 5.8439-5.0902 13.013-3.9583 9.0758-2.481 16.168 1.523 21.502z" opacity=".1"/>
<path d="m215.47 92.63c-6.4193-7.2643-16.893-9.6878-22.711-10.491l-1.7385 3.9678s17.69 0.41079 26.946 10.886c5.133 5.8088 14.503 9.3428 21.833 11.34l7.9646-2.146s-23.038-3.0809-32.294-13.556z" opacity=".1"/>
<path d="m89.612 89.804c8.6392-3.697-3.2911-24.441-3.2911-24.441l-0.32637-0.14936c2.9743 6.266 7.2879 17.59 1.1211 20.229-5.7705 2.4694-11.173-3.6742-14.125-8.0269 0.10719 0.30785 0.16604 0.4765 0.16604 0.4765s7.8164 15.61 16.456 11.913z" opacity=".1"/>
<path d="m117.79 103.15s2.6032-8.0122-2.2872-12.959c1.1992 4.2617-0.20916 8.5969-0.20916 8.5969-3.1824-7.1497-14.118-10.243-18.908-11.277 0.18577 2.3804 0.2172 3.9323 0.2172 3.9323s17.073 2.4647 21.187 11.707z" opacity=".1"/>
<path d="m128.2 28.27c0.46353-1.5487 0.46365-1.9804 0.46365-1.9804l-0.46365 1.9804z" opacity=".1"/>
<path d="m25.516 110.59c0.041486-0.01333 0.08361-0.025522 0.12482-0.039233 8.6392-2.8755 16.044-13.761 23.655-17.458 7.6108-3.697 12.136-8.6263 22.421-3.2862 0 0-1.7993-7.354-5.286-12.186 1.1549 2.5223 2.0883 5.1399 2.7897 7.8234-10.285-5.3401-14.81-0.41077-22.421 3.2862-7.6108 3.697-15.016 14.583-23.655 17.458-8.6392 2.8755-22.832-2.8755-22.832-2.8755s9.462 5.9563 21.598 6.9832c1.3883 0.11747 2.5729 0.22114 3.6057 0.29359z" opacity=".1"/>
<path d="m111.27 210.32c3.7689-11.536 12.833-43.438 5.6967-64.649-3.0818-9.1601-5.9383-15.001-8.3531-18.728 1.8059 3.5276 3.7803 8.1936 5.8568 14.366 8.8449 26.29-7.1994 69.011-7.1994 69.011h3.999z" opacity=".1"/>
<path d="m30.943 122.83c2.5218 0.25558 4.9765 0.96499 7.2452 2.0939 8.4475 4.2174 14.715 6.8922 22.347 3.7857 1.7385-0.91704 3.6831-2.0518 5.9257-3.4028 0.17484-0.1274 0.34801-0.24968 0.52475-0.38288 10.902-8.2156 25.918-18.896 40.522-12.529 0 0-2.9516-2.8897-6.2603-5.6337-13.386-3.2788-26.791 6.2893-36.758 13.8-10.902 8.2156-18.101 5.3401-28.797 0-10.696-5.3401-21.598 0.61616-21.598 0.61616 7.9476-0.23808 13.069 0.47482 16.849 1.6521z" opacity=".1"/>
<path d="m51.822 31.074c0.23463 0.39452 0.51891 0.75741 0.8459 1.0798-0.24016-0.39072-0.52395-0.75297-0.8459-1.0798z" opacity=".1"/>
<path d="m89.406 64.541c0.31794 0.30021 0.61583 0.6209 0.89176 0.96001-0.90106-2.1628-2.0138-4.0331-3.3881-5.3221-6.7879-6.3671-17.896-5.9563-17.896-5.9563l13.93 6.3751c2.387 0.88915 4.5807 2.2278 6.4618 3.9433z" opacity=".1"/>
<path d="m104.19 36.765c0.83946 1.2107 0.36781 6.3487-0.39851 11.604-1.5659 10.738 0.12277 21.734 5.1006 31.381 0.65528 1.2946 1.3872 2.5491 2.1918 3.7568-4.74-9.4997-6.3293-20.261-4.796-30.775 0.76633-5.2548 1.238-10.393 0.39851-11.604-1.8512-2.6701-9.6677-19.101-10.285-23.414-0.18501-1.6733-0.22812-3.3592-0.12886-5.0398-1.5978-4.5268-1.7504-12.673-1.7504-12.673s-1.2342 9.0371-0.61708 13.35c0.61708 4.3132 8.4335 20.744 10.285 23.414z" opacity=".1"/>
<path d="m123.49 8.3704c-0.082419-0.40595-0.20758-0.80206-0.37341-1.1817 0 0 0.15808 0.44327 0.37341 1.1817z" opacity=".1"/>
<path d="m50.833 29.056c1.8128 0.22159 3.8981 0.77697 5.4888 2.065-0.10376-0.35041-0.19427-0.66454-0.26633-0.92852-1.8513-6.7778-11.725-5.5455-11.725-5.5455 4.4619 0.57119 5.6144 2.4768 6.5023 4.409z" opacity=".1"/>
<path d="m101.96 201.54c1.4666 5.4134 6.49 8.766 6.49 8.766s2.6456-5.4242 1.179-10.838c-1.4666-5.4134-6.49-8.766-6.49-8.766s-2.6456 5.4242-1.179 10.838z" fill="#9B6F50"/>
<path d="m104.11 200.38c4.0244 3.9117 4.5159 9.925 4.5159 9.925s-6.0333-0.32893-10.058-4.2407c-4.0244-3.9117-4.5159-9.925-4.5159-9.925s6.0333 0.32894 10.058 4.2407z" fill="#FFC107"/>
<path d="m90.775 53.606c-0.34986 5.597-4.5981 9.8873-4.5981 9.8873s-3.681-4.7844-3.3312-10.381c0.34986-5.597 4.5981-9.8873 4.5981-9.8873s3.681 4.7844 3.3312 10.381z" fill="#FFC107"/>
<path d="m46.49 18.223c4.7509 2.9908 6.4838 8.7706 6.4838 8.7706s-5.9699 0.93074-10.721-2.0601c-4.7509-2.9908-6.4838-8.7706-6.4838-8.7706s5.9699-0.93074 10.721 2.0601z" fill="#FFC107"/>
<path d="m35.881 86.459c4.7509 2.9908 6.4838 8.7706 6.4838 8.7706s-5.9699 0.93074-10.721-2.0601c-4.7509-2.9908-6.4838-8.7706-6.4838-8.7706s5.9699-0.93073 10.721 2.0601z" fill="#FFC107"/>
<path d="m61.157 112.63c4.7509 2.9908 6.4838 8.7706 6.4838 8.7706s-5.9699 0.93074-10.721-2.0601c-4.7509-2.9908-6.4838-8.7706-6.4838-8.7706s5.9699-0.93073 10.721 2.0601z" fill="#FFC107"/>
<path d="m132.47 28.198c-1.4327 5.4224-6.4351 8.8063-6.4351 8.8063s-2.6794-5.4076-1.2467-10.83c1.4327-5.4224 6.4351-8.8063 6.4351-8.8063s2.6795 5.4076 1.2467 10.83z" fill="#FFC107"/>
<path d="m177.66 32.426c-1.684 5.3499-6.8387 8.4976-6.8387 8.4976s-2.4245-5.5262-0.74049-10.876c1.684-5.3499 6.8387-8.4976 6.8387-8.4976s2.4245 5.5262 0.74049 10.876z" fill="#FFC107"/>
<path d="m226.51 91.968c-3.0504 4.7087-8.8586 6.3715-8.8586 6.3715s-0.86254-5.9714 2.1879-10.68c3.0504-4.7087 8.8586-6.3715 8.8586-6.3715s0.86254 5.9714-2.1879 10.68z" fill="#FFC107"/>
</g>
</svg>
